<svg id="Capa_1" data-name="Capa 1" xmlns="http://www.w3.org/2000/svg" xmlns:xlink="http://www.w3.org/1999/xlink" width="102" height="23" viewBox="0 0 102 23">
  <defs>
    <style>
      .cls-1 {
        fill: none;
      }

      .cls-13, .cls-2 {
        fill: #fff;
      }

      .cls-3 {
        fill: #231f20;
      }

      .cls-10, .cls-12, .cls-13, .cls-3, .cls-4, .cls-7, .cls-8 {
        fill-rule: evenodd;
      }

      .cls-4, .cls-6 {
        fill: #0075f4;
      }

      .cls-5 {
        clip-path: url(#clip-path);
      }

      .cls-7 {
        fill: #000001;
      }

      .cls-8, .cls-9 {
        fill: #204184;
      }

      .cls-10, .cls-11 {
        fill: #f3b01b;
      }
    </style>
    <clipPath id="clip-path">
      <circle class="cls-1" cx="12.95" cy="11.38" r="7.7"/>
    </clipPath>
  </defs>
  <g>
    <circle class="cls-2" cx="12.95" cy="11.36" r="10.45"/>
    <path class="cls-3" d="M3.34,10.57v-.28l1,.46V11l-1,.31v-.28L3.48,11v-.36Zm.35.16V11L4,10.87Z"/>
    <path class="cls-3" d="M3.29,11.73a.26.26,0,0,1,0-.21.3.3,0,0,1,.2-.08h.45c.1,0,.18,0,.22.06a.27.27,0,0,1,.09.21v.51h-.2v-.46c0-.06,0-.08-.09-.08h-.5V12h.22v-.19h.17v.44H3.3a.74.74,0,0,1,0-.21v-.2S3.29,11.79,3.29,11.73Z"/>
    <polygon class="cls-3" points="3.5 13.38 3.35 12.6 4.34 12.41 4.49 13.19 4.29 13.23 4.19 12.7 4 12.74 4.08 13.15 3.88 13.19 3.8 12.77 3.6 12.81 3.7 13.34 3.5 13.38"/>
    <polygon class="cls-3" points="3.78 14.44 3.7 14.17 4.19 13.68 3.61 13.84 3.54 13.59 4.51 13.32 4.58 13.59 4.09 14.08 4.67 13.92 4.74 14.17 3.78 14.44"/>
    <path class="cls-3" d="M4,14.92a.25.25,0,0,1,.1-.33l.06,0,.42-.16a.31.31,0,0,1,.23,0,.28.28,0,0,1,.14.18l.18.48L5,15.14l-.17-.43a.08.08,0,0,0-.11,0l-.42.16a.07.07,0,0,0,0,.09h0v.26l.07.17-.18.07a.89.89,0,0,1-.08-.17L4,15.08Z"/>
    <polygon class="cls-3" points="4.47 16.03 4.25 15.57 4.42 15.48 4.48 15.6 5.02 15.33 4.96 15.22 5.14 15.13 5.37 15.59 5.19 15.68 5.13 15.56 4.6 15.83 4.65 15.95 4.47 16.03"/>
    <path class="cls-3" d="M4.68,16.39l-.15-.23,1-.23.15.24L5.1,17,5,16.8l.11-.15-.19-.3H4.73Zm.38-.09.13.19.21-.28Z"/>
    <polygon class="cls-3" points="6.06 18.2 5.55 17.59 6.31 16.94 6.83 17.55 6.67 17.68 6.33 17.27 6.18 17.39 6.45 17.72 6.3 17.85 6.03 17.52 5.87 17.66 6.22 18.07 6.06 18.2"/>
    <path class="cls-3" d="M6.84,18a.08.08,0,0,0,0,.1l0,0,.2.17a.29.29,0,0,1,.11.19.27.27,0,0,1-.08.19v.06a.42.42,0,0,1-.18.11.34.34,0,0,1-.2-.09l-.07-.06-.07-.06-.08-.07L6.4,18.5l-.14-.15.12-.14.15.13.13.12.12.1h0l.08-.09-.25-.21a.25.25,0,0,1-.06-.35s0,0,.06-.06h0a.25.25,0,0,1,.19-.12.33.33,0,0,1,.21.09l.38.33-.13.15L7,17.94H6.88Z"/>
    <polygon class="cls-3" points="7.38 19.28 7.17 19.13 7.63 18.48 7.39 18.3 7.51 18.14 8.21 18.64 8.09 18.8 7.84 18.63 7.38 19.28"/>
    <path class="cls-3" d="M8.86,19l.22.13-.37.63a.35.35,0,0,1-.17.15.29.29,0,0,1-.22-.06L8,19.73a.24.24,0,0,1-.16-.3.21.21,0,0,1,.06-.1l.37-.62.22.13-.37.63v.11l.18.11a.08.08,0,0,0,.11,0h0Z"/>
    <path class="cls-3" d="M9.72,19.43a.37.37,0,0,1,.2.17.39.39,0,0,1,0,.26l-.13.32a.29.29,0,0,1-.17.19.39.39,0,0,1-.26,0l-.51-.21.37-.93Zm-.06.33a.12.12,0,0,0-.05-.16h0l-.22-.09-.23.56.23.09a.11.11,0,0,0,.15,0s0,0,0,0Z"/>
    <polygon class="cls-3" points="10.34 20.69 9.85 20.55 9.9 20.36 10.03 20.39 10.19 19.82 10.07 19.78 10.13 19.59 10.62 19.73 10.56 19.92 10.44 19.89 10.27 20.46 10.4 20.5 10.34 20.69"/>
    <path class="cls-3" d="M10.74,20.8l-.27-.06.6-.89.28.06L11.49,21l-.27-.06v-.19l-.35-.08Zm.21-.33.22.06v-.36Z"/>
    <polygon class="cls-3" points="12.54 21.05 12.27 21.03 11.97 20.41 11.93 21.01 11.67 20.99 11.74 19.99 12.02 20.01 12.31 20.63 12.36 20.03 12.61 20.05 12.54 21.05"/>
    <polygon class="cls-3" points="13.3 21.05 13.05 21.06 13.02 20.26 12.72 20.27 12.71 20.07 13.57 20.04 13.58 20.24 13.28 20.25 13.3 21.05"/>
    <polygon class="cls-3" points="14.28 20.97 13.77 21.03 13.74 20.83 13.87 20.82 13.8 20.22 13.67 20.23 13.65 20.04 14.16 19.98 14.19 20.17 14.06 20.19 14.13 20.79 14.26 20.77 14.28 20.97"/>
    <polygon class="cls-3" points="14.73 20.69 15.24 20.6 15.28 20.79 14.51 20.94 14.33 19.95 14.58 19.9 14.73 20.69"/>
    <polygon class="cls-3" points="16.44 20.41 15.95 20.59 15.88 20.4 16.01 20.35 15.81 19.79 15.69 19.83 15.62 19.64 16.11 19.47 16.17 19.66 16.05 19.7 16.25 20.27 16.37 20.23 16.44 20.41"/>
    <polygon class="cls-3" points="17.45 19.97 17.2 20.08 16.64 19.67 16.89 20.22 16.66 20.33 16.24 19.41 16.49 19.3 17.05 19.71 16.8 19.16 17.04 19.05 17.45 19.97"/>
    <polygon class="cls-3" points="18.11 19.57 17.89 19.71 17.45 19.04 17.2 19.2 17.09 19.04 17.81 18.57 17.92 18.74 17.67 18.9 18.11 19.57"/>
    <polygon class="cls-3" points="19.16 18.81 18.54 19.3 17.91 18.52 18.54 18.03 18.66 18.18 18.24 18.52 18.36 18.67 18.69 18.41 18.82 18.56 18.49 18.82 18.62 18.99 19.04 18.65 19.16 18.81"/>
    <path class="cls-3" d="M18.64,18l.43-.42a.25.25,0,0,1,.35-.06l.06.06.09.09a.54.54,0,0,1,.1.16.19.19,0,0,1,0,.15L20,18l-.2.2-.33-.1-.14.13.21.22-.19.18Zm.65-.23h-.12L19,18l.2.22.21-.2a.08.08,0,0,0,0-.1s0,0,0,0Z"/>
    <polygon class="cls-3" points="20.69 17.19 20.53 17.41 19.84 17.32 20.32 17.68 20.16 17.89 19.37 17.28 19.53 17.07 20.22 17.15 19.74 16.79 19.89 16.59 20.69 17.19"/>
    <path class="cls-3" d="M21,16.82l-.15.23-.64-.85.15-.24,1.05.21-.15.24h-.19l-.19.3Zm-.24-.31.12-.19-.34-.08Z"/>
    <path class="cls-3" d="M21.55,15.82a.26.26,0,0,1-.15.16.26.26,0,0,1-.21,0l-.4-.21a.25.25,0,0,1-.17-.16.28.28,0,0,1,0-.22l.23-.46L21,15l-.2.41v.11l.4.21h.06v-.2a.09.09,0,0,0,0-.07l.08-.16.17.08a1.34,1.34,0,0,1-.07.18l-.08.16C21.6,15.73,21.58,15.78,21.55,15.82Z"/>
    <polygon class="cls-3" points="22.04 14.7 21.85 15.18 21.66 15.11 21.71 14.99 21.16 14.76 21.11 14.88 20.92 14.81 21.11 14.33 21.3 14.4 21.25 14.52 21.81 14.75 21.86 14.63 22.04 14.7"/>
    <path class="cls-3" d="M21.6,13.67c-.06,0-.09,0-.11.06l-.06.23s0,.09.06.11l.44.12a.08.08,0,0,0,.1-.06h0l.07-.24a.08.08,0,0,0-.06-.1h0Zm.51-.13a.39.39,0,0,1,.19.12.31.31,0,0,1,0,.23l-.1.35a.39.39,0,0,1-.12.19.31.31,0,0,1-.23,0l-.44-.13a.28.28,0,0,1-.2-.12.31.31,0,0,1,0-.23l.09-.34a.34.34,0,0,1,.13-.2.31.31,0,0,1,.23,0Z"/>
    <polygon class="cls-3" points="22.58 12.51 22.53 12.78 21.88 13 22.47 13.12 22.42 13.37 21.43 13.18 21.48 12.92 22.14 12.69 21.55 12.58 21.6 12.33 22.58 12.51"/>
    <path class="cls-3" d="M22.6,12.05v.28l-1-.41v-.29l1-.34v.27l-.18.06V12l.17.07Zm-.36-.14v-.23l-.34.1Z"/>
    <polygon class="cls-3" points="22.4 10.87 22.36 10.34 22.57 10.33 22.62 11.11 21.63 11.18 21.61 10.93 22.4 10.87"/>
    <path class="cls-4" d="M13,.77a10.6,10.6,0,1,1-7.48,3.1A10.61,10.61,0,0,1,13,.77Zm7.2,3.34a10.24,10.24,0,1,0,3,7.25A10.24,10.24,0,0,0,20.2,4.11Z"/>
    <g class="cls-5">
      <path class="cls-4" d="M10.06-1.9h.06c.06,0,.09.07.11.09l.13.11c0,.11-.14.36-.27.38s.08-.13-.33-.09a2.53,2.53,0,0,1-1-.21c-.34.24,0-.18-.12.32-1.3-.19-.43,0-.93-.28l-.26-.09a5.63,5.63,0,0,1-1-.25c-.32-.17-.32-.1-.67,0a3.29,3.29,0,0,0-.39.17c-.37.17-.16-.05-.76-.16A7.39,7.39,0,0,0,2.53-2a1,1,0,0,0-.4.25l-.4.33.51.35c-.4.38,0-.37-.67.19.36.44.44.09.76.27-.08.28-.34.25-.55.5l.54.54a1.34,1.34,0,0,0,.49,0c-.25.51-.19.3-.54.64C3,1,3.06.29,3.33.19s0,0,.18.09S3.82.2,4,.06V0c.54.46,1,.08,1.3.73.22-.06,0-.11.21-.13a4.76,4.76,0,0,1,.73,1.25v.21h0c.28.37.42.21.41.82A2.81,2.81,0,0,0,7,4.46c.2.41.28.22.78,1.16l.08-.2c.06-.19-.11.07,0-.18a4.45,4.45,0,0,1,.38.58c.13.19.37.45.47.61.45.71-.08.84.93,1.18.37.13.49,0,.68.14s0,.08.3.24l.38.17c.39.26.07.2.5.49.62.43.26-.09.62.08.39.43-.31,1-.31,1.87,0,.37.06.16.27.47s.22.82.58,1.06c.56.39.51.27.43,1.08a11.31,11.31,0,0,1-.16,1.5l-.25,1.6c-.06.58-.11.1-.07.8a1.26,1.26,0,0,0,.29.79l.33.4.21-.37-.1-.12a.6.6,0,0,1,.21-.81l.07,0-.2-.4c.35-.27.21-.42.4-.68v-.06h0c.65-.72.9-.17.62-1.06l.56.07c.23-.63.33-.43.46-.74.23-.52-.11-.46.42-.77s.39,0,.65-.53.09-.62.21-1,1-.64,0-1.16c-.12-.06-.14-.24-.31-.29l-.21-.06c-1.32-.48-.67-.16-1.07-1.1-.2-.06-.52-.1-.67-.16-.32-.13.06,0-.34-.31a.59.59,0,0,0-.5-.2c-.64,0-1.08-.34-1.41.22L12,8.58c-.23-.16-.15.11-.44-.13-.5-.39.23-.53-.51-.73h-.23A2.6,2.6,0,0,0,11,7l-.17,0c-.35.35.21.18-.36.32-.25.06-.48-.19-.55-.44a5.57,5.57,0,0,1,0-1c.5-.27.17-.19.75-.22l.26,0H11a1.3,1.3,0,0,1,.62,0,1.21,1.21,0,0,0,.31.72c.2-.49-.19-.58,0-1,.09-.21.27-.27.37-.37.28-.28.11-.15.22-.49l.1-.28L12.71,4a2.78,2.78,0,0,1,.73-.72c.21-.07.15,0,.28.08l.08.08a1.85,1.85,0,0,1,.39-.4h-.06l-.25-.21c-.17-.32-.07-.25,0-.48a.86.86,0,0,0-.65.22.67.67,0,0,1,.66-.4c.84-.08.29-.07.86-.28l-.28.69c.53,0,.49.18.91.08-.06-.27-.25-.37-.55-.45a.82.82,0,0,0,0-.49l-.36-.41c-.51-.34-.17.1-.37-.45a1.52,1.52,0,0,0-.32-.6c-.17.27,0,.22-.37.37-.48-.68,0-.72-1.18-.74A2.84,2.84,0,0,0,12.37,1c-.31.45-.19.35-.34.87-.5-.18-.18-.31-.35-.57L10.53.69,10.39.55c-.22-.33,0-.56.22-.76l.29-.27L11-.61l.37-.32a1.22,1.22,0,0,0,.5-.24c-.11-.32,0-.54-.44-.61a1.5,1.5,0,0,1-.27.57c-.24-.17-.17,0-.12-.42-.21.06-.27.22-.39-.1s0-.22-.25-.43h-.05c.18-.35.22-.08.45-.39C10.15-3.16,10.13-2.37,10.06-1.9Z"/>
    </g>
    <path class="cls-6" d="M13,19.44a8,8,0,1,1,8-8A8,8,0,0,1,13,19.44ZM13,4a7.37,7.37,0,1,0,7.36,7.38v0A7.38,7.38,0,0,0,13,4Z"/>
    <path class="cls-3" d="M3.66,8.49l.08-.29.82.22a.31.31,0,0,1,.22.15.3.3,0,0,1,0,.26l-.1.37a.43.43,0,0,1-.14.23.32.32,0,0,1-.27,0l-.82-.22.08-.29.82.22c.07,0,.11,0,.12-.07l.07-.24a.1.1,0,0,0,0-.12h0Z"/>
    <polygon class="cls-3" points="5.44 7.24 5.31 7.52 4.51 7.6 5.14 7.89 5.02 8.16 3.96 7.68 4.09 7.39 4.9 7.32 4.25 7.03 4.38 6.75 5.44 7.24"/>
    <polygon class="cls-3" points="5.95 6.46 5.62 6.96 5.43 6.83 5.51 6.71 4.92 6.33 4.84 6.45 4.64 6.33 4.97 5.82 5.16 5.95 5.08 6.08 5.67 6.46 5.75 6.33 5.95 6.46"/>
    <path class="cls-3" d="M5.69,5.48a.09.09,0,0,0,.13,0h0L6,5.24a.34.34,0,0,1,.21-.14.33.33,0,0,1,.23.1h.07a.36.36,0,0,1,.13.21.43.43,0,0,1-.1.24l-.07.08-.07.08L6.34,6H6.27a1.37,1.37,0,0,1-.17.17L5.94,6l.15-.18.13-.16.12-.13V5.51a.06.06,0,0,0,0-.06l-.11-.09L6,5.68a.29.29,0,0,1-.47,0h0a.39.39,0,0,1-.15-.23.41.41,0,0,1,.11-.24l.38-.45L6,4.92l-.34.4a.09.09,0,0,0,0,.13h0Z"/>
    <polygon class="cls-3" points="7.36 4.91 7.13 5.1 6.53 4.39 6.26 4.62 6.11 4.44 6.88 3.79 7.03 3.97 6.76 4.19 7.36 4.91"/>
    <path class="cls-3" d="M7.84,3.09l.25-.16.47.71a.41.41,0,0,1,.07.26.34.34,0,0,1-.17.2l-.32.21a.31.31,0,0,1-.26.07.36.36,0,0,1-.21-.17L7.21,3.5l.25-.16.47.71c0,.06.08.07.14,0l.21,0a.1.1,0,0,0,0-.14Z"/>
    <path class="cls-3" d="M9.17,2.4a.35.35,0,0,1,.48.12l0,.07L9.85,3a.39.39,0,0,1,0,.3.38.38,0,0,1-.22.21L9,3.78l-.46-1.1.59-.27Zm.24.32a.13.13,0,0,0-.16-.09l0,0L9,2.76l.29.64.26-.12a.13.13,0,0,0,.09-.16s0,0,0,0Z"/>
    <polygon class="cls-3" points="11.23 2.97 10.34 3.21 10.03 2.09 10.93 1.84 10.99 2.07 10.38 2.23 10.44 2.45 10.92 2.32 10.98 2.55 10.5 2.68 10.57 2.91 11.17 2.74 11.23 2.97"/>
    <polygon class="cls-3" points="12.55 2.79 12.23 2.83 11.75 2.18 11.84 2.88 11.54 2.92 11.4 1.75 11.71 1.72 12.2 2.37 12.11 1.67 12.41 1.63 12.55 2.79"/>
    <polygon class="cls-3" points="13.49 2.81 13.19 2.8 13.22 1.87 12.87 1.86 12.88 1.62 13.88 1.65 13.87 1.89 13.52 1.88 13.49 2.81"/>
    <path class="cls-3" d="M15,3h-.31l.73-1,.32.08.13,1.25-.32-.09V3l-.4-.11Zm.26-.37.26.07V2.29Z"/>
    <path class="cls-3" d="M16.66,2.74a.1.1,0,0,0,0,.14h0L17,3a.35.35,0,0,1,.19.17.33.33,0,0,1,0,.24v.08a.27.27,0,0,1-.33.19l-.08,0h-.1l-.1-.05h-.21a1.13,1.13,0,0,1-.21-.12l.09-.19.21.1.19.08.16.07a.09.09,0,0,0,.07,0,0,0,0,0,0,0,0l.06-.12-.35-.16a.35.35,0,0,1-.2-.18.42.42,0,0,1,0-.27h0a.35.35,0,0,1,.18-.2.42.42,0,0,1,.27,0l.53.24-.1.22-.47-.22a.09.09,0,0,0-.13,0h0Z"/>
    <polygon class="cls-3" points="18.06 4.42 17.27 3.92 17.9 2.94 18.68 3.43 18.56 3.63 18.03 3.3 17.91 3.49 18.32 3.75 18.2 3.95 17.78 3.69 17.65 3.89 18.18 4.22 18.06 4.42"/>
    <path class="cls-3" d="M19,4.17a.1.1,0,0,0,0,.14h0l.23.19a.29.29,0,0,1,0,.45l0,0a.36.36,0,0,1-.21.13.33.33,0,0,1-.23-.1l-.08,0-.09-.08-.08-.07-.09-.08a1.29,1.29,0,0,1-.16-.17l.13-.16.18.15.16.14.13.11H19l.09-.11-.29-.25a.28.28,0,0,1-.08-.39A.3.3,0,0,1,18.81,4h0a.28.28,0,0,1,.39-.08.3.3,0,0,1,.08.08l.44.38-.15.18-.39-.34a.1.1,0,0,0-.14,0h0Z"/>
    <path class="cls-3" d="M20.39,5.51a.09.09,0,0,0,0-.13h0l-.18-.22a.09.09,0,0,0-.13,0h0l-.41.35a.08.08,0,0,0,0,.11l0,0,.18.22a.09.09,0,0,0,.13,0h0Zm-.22.58a.35.35,0,0,1-.24.1.43.43,0,0,1-.23-.14l-.27-.32a.35.35,0,0,1-.1-.25.37.37,0,0,1,.14-.22l.41-.35a.35.35,0,0,1,.25-.1.37.37,0,0,1,.22.14l.27.32a.36.36,0,0,1,.11.25.34.34,0,0,1-.15.22Z"/>
    <path class="cls-3" d="M21.15,6l.35.61a.32.32,0,0,1,.06.25.35.35,0,0,1-.18.2l-.13.08a.52.52,0,0,1-.21.07.25.25,0,0,1-.16-.08l-.21.37-.17-.3.21-.35-.12-.2-.3.18-.15-.26,1-.59Zm.08.8a.08.08,0,0,0,0-.11l0,0-.17-.29-.31.17.17.29a.09.09,0,0,0,.13,0h0Z"/>
    <path class="cls-3" d="M21,8.28l-.25-.55.21-.1.06.14.64-.29-.06-.14.21-.1.25.55-.21.1-.07-.14-.6.25.06.14-.21.1Zm1-.89h.3l.12.28h-.33Z"/>
    <path class="cls-3" d="M21.19,8.79l-.08-.32,1.24.12.09.32-1,.74-.09-.32.18-.12-.11-.41Zm.45,0,.07.26.34-.23Z"/>
    <g>
      <path class="cls-7" d="M4.16,10.17A.14.14,0,0,0,4.3,10v0a.13.13,0,0,0-.12-.14h0A.14.14,0,0,0,4,10H4a.15.15,0,0,0,.15.15Z"/>
      <path class="cls-7" d="M21.74,10.17a.15.15,0,0,0,.18-.11.14.14,0,0,0-.1-.18.11.11,0,0,0-.08,0,.14.14,0,0,0-.14.14.15.15,0,0,0,.15.15Z"/>
    </g>
    <path class="cls-8" d="M6.81,10.16c.15.29.87.69,1.12,1.3a14.47,14.47,0,0,1,.13,3.6.72.72,0,0,1-.26.44,4.35,4.35,0,0,0,2.32,0,.83.83,0,0,1-.26-.44,14.47,14.47,0,0,1,.13-3.6c.25-.61,1-1,1.12-1.3a4.52,4.52,0,0,1-.53-.71,9.11,9.11,0,0,0-1.07,1.17H9.37l-.16,0L9,10.82V11H9v-.22l-.24-.29-.17,0H8.45A7.63,7.63,0,0,0,7.34,9.45,7.27,7.27,0,0,1,6.81,10.16Z"/>
    <path class="cls-8" d="M11.14,9.76c.19.24.45.58.57.47s0-.15,0-.24l-.41-.32a.51.51,0,0,0-.3-.43c-.12-.14-.31-.62-.42-.62s-.16.1-.16.24l.1.09a2.61,2.61,0,0,1,.31.43c-.07,0-.11.14-.18.22a1.24,1.24,0,0,0,.23.32Z"/>
    <path class="cls-8" d="M6.77,9.61a.73.73,0,0,1,.31-.14,1.43,1.43,0,0,1,.14.2A1.19,1.19,0,0,1,7,10a2.65,2.65,0,0,1-.4-.24A.8.8,0,0,1,6.77,9.61Z"/>
    <path class="cls-8" d="M9,10.42a.57.57,0,0,0,.54-.61A.58.58,0,0,0,9,9.19H9a.59.59,0,0,0-.54.62A.57.57,0,0,0,9,10.42Z"/>
    <path class="cls-8" d="M5.87,9.56h.41v.06l.12.21h0l.12-.11A1.37,1.37,0,0,1,7,9.41h.22a2.12,2.12,0,0,1-.11-.21V9.08l.21-.26L6.4,8.9,6,9.38Z"/>
    <ellipse class="cls-9" cx="8.59" cy="15.64" rx="0.26" ry="0.15"/>
    <ellipse class="cls-9" cx="9.32" cy="15.64" rx="0.26" ry="0.15"/>
    <path class="cls-8" d="M6.14,9.51a2,2,0,0,1-.06.65.08.08,0,0,0,.09,0h0V9.51C6.17,9.38,6.16,9.42,6.14,9.51Z"/>
    <path class="cls-10" d="M11.12,10.16c.14.29.86.69,1.11,1.3a14.47,14.47,0,0,1,.13,3.6.72.72,0,0,1-.26.44,4.35,4.35,0,0,0,2.32,0,.83.83,0,0,1-.26-.44,15,15,0,0,1,.13-3.6c.25-.61,1-1,1.12-1.3a4.52,4.52,0,0,1-.53-.71,9.11,9.11,0,0,0-1.07,1.17h-.14l-.16,0-.25.29V11h0v-.22L13,10.53l-.17.05h-.14a7.43,7.43,0,0,0-1.07-1.17A7.52,7.52,0,0,1,11.12,10.16Z"/>
    <path class="cls-10" d="M15.44,9.76c.19.24.43.54.55.44s0-.09-.06-.18l-.35-.35a.48.48,0,0,0-.28-.43c-.11-.14-.31-.62-.42-.62a.22.22,0,0,0-.16.24l.11.09a3.3,3.3,0,0,1,.3.43c-.07,0-.11.15-.18.22a1.44,1.44,0,0,0,.23.32Z"/>
    <path class="cls-10" d="M11.07,9.61a.73.73,0,0,1,.31-.14,1.43,1.43,0,0,1,.14.2,1,1,0,0,1-.21.3,2.65,2.65,0,0,1-.4-.24A.61.61,0,0,1,11.07,9.61Z"/>
    <ellipse class="cls-11" cx="13.26" cy="9.81" rx="0.54" ry="0.62"/>
    <path class="cls-10" d="M10.17,9.56h.41v.06a.53.53,0,0,0,.12.21h0l.13-.11a1.22,1.22,0,0,1,.45-.24h.22a2.12,2.12,0,0,0-.11-.21V9.15l.22-.26L10.69,9l-.45.53Z"/>
    <ellipse class="cls-11" cx="12.89" cy="15.64" rx="0.26" ry="0.15"/>
    <ellipse class="cls-11" cx="13.62" cy="15.64" rx="0.26" ry="0.15"/>
    <path class="cls-10" d="M10.45,9.51a5.85,5.85,0,0,1-.07.65.07.07,0,0,0,.09,0h0V9.52C10.47,9.43,10.46,9.42,10.45,9.51Z"/>
    <g>
      <path class="cls-12" d="M15.42,10.16c.14.29.86.69,1.11,1.3a15,15,0,0,1,.14,3.6.78.78,0,0,1-.27.44,4.35,4.35,0,0,0,2.32,0,.83.83,0,0,1-.26-.44,15,15,0,0,1,.13-3.6c.26-.61,1-1,1.12-1.3a4.52,4.52,0,0,1-.53-.71,9,9,0,0,0-1.06,1.17H18l-.16,0-.25.29V11h0v-.22l-.24-.29-.17,0H17a7.43,7.43,0,0,0-1.07-1.17A8.28,8.28,0,0,1,15.42,10.16Z"/>
      <path class="cls-12" d="M19.74,9.76c.19.24.35.65.47.54s.05-.15,0-.25l-.31-.38a.51.51,0,0,0-.27-.43c-.12-.14-.32-.62-.43-.62a.22.22,0,0,0-.16.24l.11.09a3.3,3.3,0,0,1,.3.43c-.07,0-.11.14-.18.22a1.44,1.44,0,0,0,.23.32Z"/>
      <path class="cls-12" d="M15.37,9.61a.73.73,0,0,1,.31-.14,1.43,1.43,0,0,1,.14.2,1,1,0,0,1-.21.3,2.65,2.65,0,0,1-.4-.24A.61.61,0,0,1,15.37,9.61Z"/>
      <ellipse cx="17.56" cy="9.81" rx="0.54" ry="0.62"/>
      <path class="cls-12" d="M14.47,9.56h.41v.06a.53.53,0,0,0,.12.21h0l.13-.11a1.31,1.31,0,0,1,.45-.24h.22a2.12,2.12,0,0,0-.11-.21V9.15L16,8.77l-.92.08-.45.53Z"/>
      <g>
        <ellipse cx="17.19" cy="15.64" rx="0.26" ry="0.15"/>
        <ellipse cx="17.92" cy="15.64" rx="0.26" ry="0.15"/>
      </g>
      <path class="cls-12" d="M14.75,9.51a5.85,5.85,0,0,1-.07.65.07.07,0,0,0,.09,0h0V9.52C14.77,9.43,14.76,9.42,14.75,9.51Z"/>
    </g>
  </g>
  <g>
    <path class="cls-13" d="M29.56,6.59H31v4.12a1.71,1.71,0,0,1-.38,1.23,1.66,1.66,0,0,1-1.23.39H27.54a1.66,1.66,0,0,1-1.23-.39,1.66,1.66,0,0,1-.39-1.23V6.59h1.46v4.12a.44.44,0,0,0,.36.49.48.48,0,0,0,.12,0h1.21a.44.44,0,0,0,.49-.36.29.29,0,0,0,0-.13Zm8,5.66H36l-2-3.4v3.4H32.59V6.59h1.53L36.06,10V6.59h1.45v5.66Zm4.24,0H38.9V11.12h.72V7.72H38.9V6.59h2.9V7.72H41v3.4h.72v1.13Zm2.5-3.88a.42.42,0,0,0,.35.48h1.59a1.62,1.62,0,0,1,1.16.37,1.53,1.53,0,0,1,.37,1.14v.4a1.53,1.53,0,0,1-.37,1.14,1.58,1.58,0,0,1-1.16.37H44.09a6.6,6.6,0,0,1-1.17-.1v-1h3a.41.41,0,0,0,.3-.1.41.41,0,0,0,.11-.28v-.68H44.46a1.66,1.66,0,0,1-1.23-.39,1.66,1.66,0,0,1-.39-1.23V8.21A1.63,1.63,0,0,1,43.23,7a1.66,1.66,0,0,1,1.23-.39h2.83V7.72H44.78a.43.43,0,0,0-.48.37.24.24,0,0,0,0,.12Zm7.15,3.88H50V7.72H48.3V6.59h4.84V7.72H51.45ZM58,6.59h1.4v4.12a1.67,1.67,0,0,1-.4,1.23,1.66,1.66,0,0,1-1.23.39H55.93a1.66,1.66,0,0,1-1.23-.39,1.66,1.66,0,0,1-.39-1.23V6.59h1.46v4.12a.44.44,0,0,0,.36.49.48.48,0,0,0,.12,0h1.21a.44.44,0,0,0,.49-.36.29.29,0,0,0,0-.13V6.59Zm6.18,0a1.85,1.85,0,0,1,1.38.47A1.85,1.85,0,0,1,66,8.45v1.94a1.84,1.84,0,0,1-.47,1.38,1.83,1.83,0,0,1-1.38.48H61V6.59Zm.4,1.86A.65.65,0,0,0,64,7.72H62.43v3.4H63.8a.65.65,0,0,0,.73-.56.49.49,0,0,0,0-.17V8.45Zm7.35,3.8H67.4V6.59h4.48V7.72h-3V8.81h2.39V9.94H68.85v1.18h3v1.13Zm6.18,0H76.53l-1.94-3.4v3.4H73.13V6.59h1.54L76.61,10V6.59h1.45v5.66Zm4.32,0h-1.5V7.72h-1.7V6.59h4.85V7.72h-1.7Z"/>
    <path class="cls-13" d="M26.43,16.38h-.51l.69-1.83h.53l.69,1.83h-.51l-.12-.33h-.65Zm.24-.66h.41l-.2-.62Zm1.84.68a.53.53,0,0,1-.38-.12.5.5,0,0,1-.12-.37v-.84a.46.46,0,0,1,.39-.52.29.29,0,0,1,.13,0h.95v.37h-.84c-.11,0-.16.05-.16.15v.84a.06.06,0,1,0,.09.09h.55v-.39h-.34V15.3h.81v1h-.76Zm3,0H30.05V14.55H31.5v.37h-1v.35h.77v.37H30.5V16h1v.4Zm2,0H33l-.62-1.1v1.1h-.47V14.55h.49l.63,1.1v-1.1h.47V16.4Zm.91,0a.44.44,0,0,1-.49-.36.29.29,0,0,1,0-.13v-.83a.55.55,0,0,1,.12-.39.53.53,0,0,1,.4-.13h.94v.37H34.5a.13.13,0,0,0-.15.11v.88a.14.14,0,0,0,0,.09h.49A.29.29,0,0,0,35,16h.33v.35h-1Zm2.2,0h-.94V16h.23V14.9h-.23v-.37h.94v.37h-.24V16h.24v.4Zm.72,0h-.51l.69-1.83H38l.69,1.83h-.5l-.12-.33H37.4l-.11.33Zm.23-.66H38l-.21-.62Zm3.84.66h-1.5V14.55h1.45v.37h-1v.35h.77v.37h-.77V16h1v.36Zm.76-1.25c0,.1,0,.15.16.15h.47a.44.44,0,0,1,.49.36.29.29,0,0,1,0,.13v.13a.44.44,0,0,1-.36.49.29.29,0,0,1-.13,0H41.72V16h1a.17.17,0,0,0,.1,0,.14.14,0,0,0,0-.09v-.22h-.6a.58.58,0,0,1-.4-.13.58.58,0,0,1-.12-.4v-.07a.58.58,0,0,1,.12-.4.53.53,0,0,1,.4-.13h.92v.37h-.81a.14.14,0,0,0-.16.12v.09Zm2.27,1.25H44V14.92h-.55v-.37H45v.37h-.55V16.4Zm2.07-1.83H47v1.34a.46.46,0,0,1-.39.52.29.29,0,0,1-.13,0H45.8a.46.46,0,0,1-.52-.39.29.29,0,0,1,0-.13V14.55h.47v1.34c0,.1,0,.15.16.15h.39c.11,0,.16,0,.16-.15V14.55Zm2,0a.54.54,0,0,1,.6.47.29.29,0,0,1,0,.13v.63a.62.62,0,0,1-.15.45.63.63,0,0,1-.45.15h-1V14.55Zm.13.6a.21.21,0,0,0-.19-.23H48V16h.44a.21.21,0,0,0,.24-.17v-.66Zm1.75,1.23h-.94V16h.23V14.9h-.23v-.37h.94v.37h-.24V16h.24v.4Zm.72,0H50.6l.69-1.83h.52l.69,1.83h-.6l-.11-.33h-.66L51,16.4Zm.23-.66h.42l-.21-.62Zm3,.66h-.5l-.63-1.1v1.1H52.7V14.55h.5l.63,1.1v-1.1h.47v1.83Zm1.35,0h-.47V14.92h-.55v-.37H56.2v.37h-.55v1.46Zm1.75,0H56.5V16h.24V14.9H56.5v-.37h.94v.37h-.23V16h.23v.4Zm.87-.36h.95v.36H57.8V14.55h.47V16Zm3.09.36h-.94V16h.24V14.9h-.24v-.37h.94v.37h-.23V16h.23v.4Zm2,0h-.5l-.63-1.1v1.1H61.8V14.55h.5l.63,1.1v-1.1h.47V16.4Zm1.36,0h-.47V14.92h-.55v-.37h1.57v.37h-.55V16.4Zm2.33,0h-1.5V14.55H67v.37H66v.35h.77v.37H66V16h1v.36Zm.37-1.83h1.1a.53.53,0,0,1,.4.13.58.58,0,0,1,.12.4v.23a.67.67,0,0,1-.07.34.38.38,0,0,1-.23.16l.33.57H68.6l-.3-.55h-.37v.55h-.47V14.57Zm1.15.53a.14.14,0,0,0-.12-.16h-.56v.55h.52a.14.14,0,0,0,.16-.12V15.1ZM71,16.38h-.49l-.63-1.1v1.1h-.47V14.55h.49l.63,1.1v-1.1H71Zm.8,0h-.51L72,14.55h.52l.7,1.83h-.51l-.12-.33H72l-.12.33Zm.23-.66h.42l-.21-.62Zm1.85.67a.53.53,0,0,1-.38-.12.5.5,0,0,1-.12-.37v-.83a.45.45,0,0,1,.37-.52.38.38,0,0,1,.15,0h.94v.37H74c-.11,0-.16.05-.16.15v.84a.14.14,0,0,0,0,.09A.14.14,0,0,0,74,16h.39a.33.33,0,0,0,.14,0h.33v.35h-1Zm2.19,0h-.94V16h.24V14.9h-.24v-.37h.94v.37h-.23V16h.23v.39Zm1.57-1.33a.14.14,0,0,0-.12-.16H77a.14.14,0,0,0-.16.12v.88c0,.1,0,.15.16.15h.44c.11,0,.16,0,.16-.15Zm.47.84a.46.46,0,0,1-.39.52H77a.45.45,0,0,1-.52-.37.38.38,0,0,1,0-.15v-.84a.44.44,0,0,1,.52-.52h.66a.55.55,0,0,1,.39.12.53.53,0,0,1,.13.4v.84Zm2,.49h-.5L79,15.28v1.1h-.47V14.55H79l.63,1.1v-1.1h.47v1.83Zm.8,0H80.4l.69-1.83h.52l.69,1.83h-.5l-.12-.33H81Zm.23-.66h.42l-.21-.62Zm1.92.3h1v.36H82.64V14.55h.47Z"/>
  </g>
</svg>
