<svg id="Capa_1" data-name="Capa 1" xmlns="http://www.w3.org/2000/svg" xmlns:xlink="http://www.w3.org/1999/xlink" width="1080" height="1080" viewBox="0 0 1080 1080">
  <defs>
    <style>
      .cls-1 {
        fill: none;
      }

      .cls-2 {
        fill: #fff;
      }

      .cls-3 {
        fill: #231f20;
      }

      .cls-10, .cls-12, .cls-3, .cls-4, .cls-7, .cls-8 {
        fill-rule: evenodd;
      }

      .cls-4, .cls-6 {
        fill: #0075f4;
      }

      .cls-5 {
        clip-path: url(#clip-path);
      }

      .cls-7 {
        fill: #000001;
      }

      .cls-8, .cls-9 {
        fill: #204184;
      }

      .cls-10, .cls-11 {
        fill: #f3b01b;
      }
    </style>
    <clipPath id="clip-path">
      <circle class="cls-1" cx="540" cy="540.84" r="348.41"/>
    </clipPath>
  </defs>
  <g>
    <circle class="cls-2" cx="540" cy="540" r="472.5"/>
    <path class="cls-3" d="M105,504.35l1-12.59,43.88,20.55-1,12.91-46.48,13.66,1-12.59,8.29-2.29,1.23-16.13L105,504.35Zm16,7.06-.79,10.33,15.56-4Z"/>
    <path class="cls-3" d="M102.85,556.76q-.48-6.32,2.25-9.52c1.81-2.13,4.83-3.35,9-3.67L134.69,542q6.74-.51,10,2.32t3.81,9.61l1.77,23.24-9,.68-1.57-20.65q-.3-3.87-4.15-3.58L115,555.19a3.08,3.08,0,0,0-2.28,1,3.19,3.19,0,0,0-.7,2.42l.33,4.29c.12,1.57.23,3,.34,4.42.12,1.6.24,3.21.37,4.84l9.55-.72L122,563.1l7.74-.59,1.53,20-24.88,1.9a70.21,70.21,0,0,1-1.42-9.7,54.33,54.33,0,0,1-1.4-9Q103.17,560.9,102.85,556.76Z"/>
    <polygon class="cls-3" points="112.46 631.17 105.86 595.86 150.4 587.53 157 622.85 148.09 624.51 143.63 600.65 135.05 602.26 138.55 621.03 129.65 622.69 126.14 603.92 116.91 605.65 121.37 629.51 112.46 631.17"/>
    <polygon class="cls-3" points="124.93 679.08 121.62 667.24 143.64 644.97 117.45 652.27 114.32 641.05 157.97 628.88 161.27 640.73 139.25 662.99 165.44 655.69 168.57 666.91 124.93 679.08"/>
    <path class="cls-3" d="M133.39,701.17q-2.26-5.92-.59-9.76t7.55-6.09L159.49,678q6.27-2.43,10.22-.64t6.39,8.12l8.36,21.74L176,710.44l-7.43-19.33c-.93-2.42-2.59-3.17-5-2.24l-19.24,7.4a3,3,0,0,0-1.85,4.18l1,2.66c.39,1,.79,2,1.21,3.14l1.27,3.29a10.68,10.68,0,0,0,1.76,3c.94,2.46,1.92,5,2.92,7.62l-7.89,3a46.14,46.14,0,0,1-3.87-7.73q-1.32-3.45-2.8-7.28T133.39,701.17Z"/>
    <polygon class="cls-3" points="156.51 751.43 146.15 730.55 154.27 726.52 156.86 731.74 181.21 719.66 178.62 714.44 186.74 710.41 197.1 731.28 188.98 735.31 186.39 730.1 162.04 742.18 164.63 747.4 156.51 751.43"/>
    <path class="cls-3" d="M166,767.61,159.15,757l47.34-10.31,7,10.85L184.9,796.64,178,786.06l5.2-6.85-8.82-13.57-8.37,2Zm17-4.11,5.64,8.68,9.94-12.63Z"/>
    <polygon class="cls-3" points="228.41 849.28 205.07 821.98 239.5 792.53 262.85 819.84 255.96 825.73 240.19 807.28 233.55 812.96 245.96 827.47 239.07 833.36 226.66 818.85 219.53 824.95 235.3 843.39 228.41 849.28"/>
    <path class="cls-3" d="M263.58,839.06Q261,842,264,844.54l8.79,7.64q4.8,4.16,5.12,8.32c.22,2.78-1.05,5.74-3.77,8.87l-2.1,2.42q-4.08,4.69-8.25,5c-2.78.17-5.77-1.12-9-3.9l-3.1-2.7-3.32-2.88L245,864.33l-3.2-2.79a51.75,51.75,0,0,1-6.53-6.79l5.43-6.25,6.94,6,6,5.18,5.22,4.55a3.32,3.32,0,0,0,2.33.93,3,3,0,0,0,2.12-1.12l3.6-4.14-11.23-9.77q-5.13-4.45-5.43-8.79t4.15-9.47l1.28-1.47c3-3.41,5.9-5.23,8.79-5.43s6.05,1.19,9.47,4.16L291,844.07l-5.94,6.84L269.91,837.7q-2.93-2.55-5.48.38Z"/>
    <polygon class="cls-3" points="287.86 898.3 278.38 891.53 299.43 862.03 288.37 854.13 293.63 846.76 325.25 869.32 319.98 876.69 308.92 868.8 287.86 898.3"/>
    <path class="cls-3" d="M355,887.17l10,6-16.84,28.39q-3.46,5.84-7.68,6.92T330.43,926l-12.8-7.6q-5.85-3.47-6.92-7.68t2.39-10.06l16.84-28.39,10,6-16.84,28.39c-1.32,2.22-.87,4,1.36,5.32l8.35,4.95c2.22,1.32,4,.87,5.32-1.36Z"/>
    <path class="cls-3" d="M393.72,905q6.78,2.73,8.88,7.66T402,924.32l-5.81,14.41q-2.73,6.78-7.66,8.88T376.77,947l-23.41-9.45,16.95-42L393.72,905Zm-2.57,15q2.19-5.4-3.22-7.58l-10.21-4.11-10.16,25.21,10.2,4.11c3.61,1.46,6.13.38,7.59-3.22Z"/>
    <polygon class="cls-3" points="421.82 962.16 399.45 955.64 401.99 946.94 407.58 948.57 415.19 922.47 409.59 920.84 412.13 912.14 434.5 918.66 431.96 927.36 426.37 925.73 418.76 951.83 424.36 953.46 421.82 962.16"/>
    <path class="cls-3" d="M440,966.94l-12.3-2.87,27-40.22,12.6,2.95,6.39,48L461.39,972l-1-8.54-15.76-3.69L440,966.94Zm9.42-14.75,10.09,2.36-1.58-16Z"/>
    <polygon class="cls-3" points="521.23 978.4 508.97 977.47 495.55 949.18 493.48 976.29 481.87 975.4 485.31 930.23 497.57 931.16 510.99 959.45 513.06 932.34 524.67 933.22 521.23 978.4"/>
    <polygon class="cls-3" points="555.85 978.38 544.21 978.77 542.99 942.54 529.4 943 529.1 933.94 567.92 932.64 568.22 941.7 554.63 942.15 555.85 978.38"/>
    <polygon class="cls-3" points="600.01 974.65 576.87 977.4 575.8 968.41 581.58 967.72 578.37 940.72 572.58 941.41 571.51 932.41 594.65 929.66 595.72 938.66 589.93 939.35 593.15 966.34 598.94 965.65 600.01 974.65"/>
    <polygon class="cls-3" points="620.37 962.08 643.59 957.74 645.25 966.64 610.58 973.13 602.25 928.59 613.71 926.45 620.37 962.08"/>
    <polygon class="cls-3" points="697.59 949.57 675.6 957.28 672.6 948.72 678.1 946.8 669.11 921.14 663.61 923.07 660.62 914.52 682.61 906.81 685.6 915.36 680.11 917.29 689.1 942.94 694.59 941.02 697.59 949.57"/>
    <polygon class="cls-3" points="743.49 929.33 732.28 934.4 706.93 916.04 718.13 940.8 707.52 945.61 688.84 904.33 700.04 899.26 725.4 917.62 714.2 892.85 724.81 888.05 743.49 929.33"/>
    <polygon class="cls-3" points="773.17 911.44 763.4 917.79 743.64 887.4 732.25 894.81 727.31 887.21 759.87 866.04 764.81 873.64 753.41 881.05 773.17 911.44"/>
    <polygon class="cls-3" points="820.8 876.87 792.76 899.33 764.44 863.96 792.48 841.51 798.14 848.58 779.2 863.75 784.66 870.57 799.56 858.64 805.23 865.71 790.32 877.65 796.19 884.97 815.13 869.8 820.8 876.87"/>
    <path class="cls-3" d="M797.26,837.93l19.61-18.84q4.89-4.71,9.25-4.62t9,5l4,4.2q3.72,3.87,4.5,7.25a8.72,8.72,0,0,1-1.35,6.78l15.7,4.66-9.1,8.74-14.79-4.64-6.53,6.28,9.42,9.8-8.4,8.07-31.4-32.67Zm29.51-10.4c-1.79-1.87-3.62-1.9-5.49-.11l-9.34,9,9.42,9.8,9.34-9q2.79-2.69.11-5.49Z"/>
    <polygon class="cls-3" points="890.03 803.7 882.61 813.51 851.56 809.5 873.24 825.9 866.21 835.2 830.08 807.87 837.5 798.06 868.55 802.07 846.87 785.67 853.89 776.37 890.03 803.7"/>
    <path class="cls-3" d="M902.13,786.89l-6.77,10.65-29.05-38.76,6.94-10.93,47.44,9.81-6.77,10.65-8.39-1.88-8.67,13.66,5.27,6.8Zm-10.82-13.77,5.56-8.74-15.62-3.78Z"/>
    <path class="cls-3" d="M929.06,741.93q-2.87,5.66-6.83,7t-9.58-1.49l-18.32-9.22q-6-3-7.35-7.14t1.72-10.19l10.47-20.81,8.1,4.07L898,722.66c-1.16,2.31-.6,4,1.7,5.2l18.42,9.27a3.13,3.13,0,0,0,2.49.27,3.18,3.18,0,0,0,1.84-1.72l1.28-2.54c.49-1,1-2,1.52-3l1.58-3.16a11.24,11.24,0,0,0,1.07-3.34l3.66-7.28,7.56,3.8a46,46,0,0,1-3.13,8.06c-1.11,2.2-2.27,4.52-3.51,7S930.08,739.88,929.06,741.93Z"/>
    <polygon class="cls-3" points="951.18 691.22 942.47 712.83 934.06 709.44 936.24 704.04 911.03 693.87 908.85 699.27 900.45 695.89 909.16 674.27 917.57 677.66 915.39 683.07 940.6 693.23 942.78 687.83 951.18 691.22"/>
    <path class="cls-3" d="M931,644.29c-2.5-.69-4.09.21-4.79,2.7l-3,10.6c-.7,2.49.2,4.09,2.7,4.78l19.95,5.57c2.49.69,4.09-.21,4.78-2.7l3-10.6c.69-2.5-.21-4.09-2.7-4.79l-20-5.56Zm23.08-5.66q6.54,1.83,8.68,5.61t.31,10.34l-4.35,15.58q-1.82,6.55-5.61,8.69t-10.33.31l-19.95-5.56q-6.55-1.83-8.69-5.62t-.31-10.33l4.35-15.59q1.83-6.54,5.61-8.68t10.33-.31Z"/>
    <polygon class="cls-3" points="975.43 592.01 973.17 604.1 943.6 614.37 970.32 619.37 968.18 630.82 923.64 622.49 925.9 610.4 955.48 600.13 928.75 595.13 930.9 583.68 975.43 592.01"/>
    <path class="cls-3" d="M976.48,571.23l-.42,12.62L931.35,565.2l.43-12.94,45.85-15.64-.42,12.61L969,551.88l-.54,16.17,8,3.18Zm-16.3-6.37.34-10.35-15.37,4.67Z"/>
    <polygon class="cls-3" points="967.49 517.59 965.7 494.03 974.73 493.34 977.41 528.51 932.24 531.96 931.35 520.34 967.49 517.59"/>
    <path class="cls-4" d="M540,61A479,479,0,1,1,201.3,201.3,477.5,477.5,0,0,1,540,61ZM867.89,212.11A463.7,463.7,0,1,0,1003.71,540,462.23,462.23,0,0,0,867.89,212.11Z"/>
    <g class="cls-5">
      <path class="cls-4" d="M409.05-59.75c.92.79,2.4.72,2.84,2.3.71,2.59,3.95,3.31,5,4.22,4.37,3.65,2.41,1.61,5.7,4.8-2,4.78-6,16.31-12,17.1s3.31-5.74-15.24-3.79c-21.55,2.27-27-5-44.34-9.76-15.66,11.08,1-7.88-5.59,14.55-58.74-8.72-19.38-1.49-42-12.73-.43-.21-10.48-3.54-11.89-4-13.88-4.35-30.74-4.49-43.06-11.28-14.28-7.87-14.57-4.5-30,.57a113.62,113.62,0,0,0-18,7.31c-16.5,8-6.9-2.12-34.24-7.18-21.77-4-80.45-14-97.59-7.4-11.58,4.47-10.52,4.8-18.17,10.95L32.21-39.18l23.21,16C37.38-6,55-39.75,24.91-14.48c16.64,19.7,20.1,4,34.43,12.34C56,10.24,43.91,8.89,34.47,20.32L59.13,44.77C66.07,47.36,73.65,47,81,47.19,69.79,70.11,72.4,60.53,56.77,75.93c33.16-4.72,35.76-36.46,48.06-41.16,17.72-6.79-2.09.11,8.08,3.89,12.19,4.55,13.79-3.35,20.31-9.95.5-.51,1.4-1.65,2.15-2.43,24.66,20.87,43.29,3.59,58.75,32.8,10-2.76.26-4.81,9.75-5.79,10.89,13.22,28,39.79,32.83,56.49l2.2,9.63c.23.41.85,1.4,1.14,1.79,12.48,16.73,19,9.51,18.55,36.85-.47,32.63,1.59,47.16,13,70,9.22,18.54,12.63,9.59,35.4,52.16l3.58-9.05c2.61-8.38-5,3.28,1.79-7.95,7.31,7.31,10.43,16.78,17.07,26.29,5.81,8.32,17,20.44,21.55,27.64,20,31.78-3.66,37.78,41.74,53.28,16.67,5.7,22.41,1.63,30.82,6.29,6.81,3.77,1,3.45,13.66,10.82,6.66,3.88,11.14,3.73,17,7.6,17.88,11.76,3.21,9.1,22.75,22.41,28.22,19.22,11.81-4.34,28.11,3.72,17.66,19.21-13.89,45.9-13.93,84.36,0,16.74,2.65,7.35,12.16,21.36,11,16.19,9.83,36.9,26.12,48,25.46,17.42,23.14,12,19.65,48.73-1.51,15.92-4.65,55.05-7.54,68l-11,72c-2.87,26.53-5.15,4.57-3.19,36.5.8,13.15,3.52,24.07,12.84,35.8l15.21,17.67,9.14-16.61c-.58-.77-3.47-4.28-4.14-5.37-8.77-14.07-2.59-29.89,12.54-38.11l-9.14-18c16-12,9.56-19,17.92-30.81l2.54-2.48c.34-.36,1.31-1.19,1.68-1.6,29.6-32.27,40.77-7.54,28.15-48l25.16,3.53c10.69-28.85,14.94-19.67,21.09-33.67,10.36-23.62-5.15-20.92,19-34.61,21.16-12,17.58.29,29.37-24,10-20.55,4-28,9.33-44.79,5.53-17.56,46.94-29.09,1.5-52.66-5.42-2.8-6.31-10.69-14.16-13.07-.83-.25-9-2.46-9.5-2.64-59.56-21.78-30.29-7.45-48.53-49.82-8.69-2.91-23.22-4.38-30.3-7.35-14.19-6,3.1.72-15-13.88-10.53-8.49-9.31-7.8-22.92-9-28.66-2.58-48.56-15.47-63.86,9.81l-10.6-7.34c-10.26-7.1-6.89,5.19-20-5.84-22.79-17.45,10.28-23.87-23.11-32.79l-10.36-2.33c3.44-14,8.39-24.39,7.52-35.05L443,342.24c-16,15.93,9.72,8.31-16.21,14.7-11.13,2.71-21.9-8.9-25-20-2.36-8.37.41-35.74,1-46.85,22.42-12.48,7.48-8.73,34.09-10l11.38-2.37c.81-.23,1.87-.83,2.69-1.05,11.42-3.1,15.15-.66,27.87.08,3.33,13.09,3.13,21.3,14.05,32.47,9-21.92-8.47-26-.45-44.71,4-9.31,12.17-12.1,16.65-16.64,12.71-12.89,5.22-6.81,9.85-22.32.23-.79,4.59-12.26,4.64-12.37.13-.29,5.85-10.73,5.89-10.78,5.12-7.62,24.87-29.81,33.19-32.55,9.19-3,6.72-.6,12.59,4l3.52,3.39c6-7.56,8.86-8.22,17.19-14.81-.76-.62-2.19-2.21-2.55-1.48l-11.29-9.62c-8-14.35-3.34-11,1.66-21.52-17.35.28-16.11,2.42-29.57,9.8,7.79-11.95,11.29-16.21,29.77-17.92,38-3.5,13.54-3.29,39.33-12.7L610.61,140c23.67,1.12,22.07,8.24,40.9,3.76-2.58-12.4-11.16-16.64-24.63-20.25,2.23-8.25,2.54-14.78-.1-22.17L610.29,82.77c-22.87-15.62-7.43,4.35-16.79-20.39C588.4,48.92,588.27,45.33,579,35c-7.48,12.47-1.89,10.14-16.69,17-21.45-30.87.67-32.43-53-33.65-1.67,44.26-2.65,18.18,6.14,53.58-14.16,20.17-8.57,15.61-15.62,39.38-22.22-8.17-7.76-13.9-15.42-26L430.17,57.57c-.08-.08-5.9-6.53-6-6.68-10.24-14.58-.37-25.33,9.94-34.29L446.92,4.49c3.5-3.32,3.66-3.11,6.58-5.92l16.73-14.46c11.35-4.42,9.42-1.48,22.77-10.94-5.27-14.38.5-24.45-20.16-27.36-3.6,8.68-5.3,18.42-12.34,25.83-10.85-7.81-7.4-1.61-5.38-19C445.89-45,443-37.68,437.68-52c-4.76-12.78-1.67-10.18-11.27-19.55-.63-.6-1.87-1.78-2.39-2.29a24,24,0,0,1-2.44-2.38c8.18-15.48,10.17-3.44,20.62-17.3C413.18-116.6,412.22-80.94,409.05-59.75Z"/>
    </g>
    <path class="cls-6" d="M542,905.55c-200.55,0-363.71-163.16-363.71-363.71S341.43,178.14,542,178.14s363.7,163.16,363.7,363.7S742.52,905.55,542,905.55Zm0-696.83c-183.69,0-333.13,149.44-333.13,333.12S358.29,875,542,875,875.1,725.53,875.1,541.84,725.66,208.72,542,208.72Z"/>
    <path class="cls-3" d="M119.56,410.28l3.55-13.12,37.16,10q7.64,2.07,10.17,6.48t.46,12.05l-4.55,16.76q-2.06,7.65-6.46,10.18t-12,.44l-37.16-10L114.23,430,151.38,440q4.37,1.19,5.55-3.2l3-10.93c.78-2.92-.28-4.76-3.19-5.55Z"/>
    <polygon class="cls-3" points="200.19 353.42 194.27 366.48 158.33 370.11 186.8 383 181.21 395.38 133.01 373.57 138.92 360.5 175.6 357.2 146.38 343.99 152 331.61 200.19 353.42"/>
    <polygon class="cls-3" points="223.16 318.26 208.41 341.07 199.53 335.33 203.22 329.62 176.57 312.37 172.88 318.08 164.03 312.36 178.78 289.55 187.63 295.28 183.95 300.97 210.6 318.22 214.29 312.52 223.16 318.26"/>
    <path class="cls-3" d="M211.28,274c2.28,1.93,4.4,1.76,6.34-.55l8.79-10.37q4.8-5.64,9.65-6.08t10.41,4.28l2.84,2.41q5.55,4.69,5.92,9.58c.23,3.23-1.24,6.74-4.43,10.5l-3.1,3.65-3.32,3.92q-1.69,2-3.37,4c-1.13,1.31-2.19,2.57-3.2,3.76a62.07,62.07,0,0,1-7.82,7.73l-7.31-6.21,6.93-8.18q2.88-3.39,5.95-7l5.24-6.16a3.82,3.82,0,0,0,1-2.73,3.4,3.4,0,0,0-1.33-2.47l-4.93-4.19-11.23,13.25c-3.43,4-6.82,6.19-10.18,6.46s-7.06-1.27-11.08-4.68l-1.72-1.47q-6-5.12-6.43-10.15c-.28-3.38,1.3-7.07,4.72-11.1L216.79,242l8.05,6.83-15.19,17.91c-2,2.31-1.79,4.42.49,6.36Z"/>
    <polygon class="cls-3" points="287.16 248.15 276.79 256.92 249.47 224.66 237.37 234.91 230.56 226.87 265.12 197.6 271.94 205.64 259.84 215.89 287.16 248.15"/>
    <path class="cls-3" d="M308.84,166l11.41-7.37,20.92,32.33q4.31,6.66,3.23,11.63c-.7,3.3-3.28,6.38-7.71,9.25l-14.58,9.43c-4.43,2.87-8.31,4-11.61,3.24s-6.4-3.28-9.27-7.72l-20.91-32.34,11.41-7.37,20.93,32.35q2.44,3.79,6.25,1.35l9.51-6.15c2.53-1.65,3-3.73,1.35-6.27Z"/>
    <path class="cls-3" d="M368.9,134.93q7.77-3.56,13.61-1.38t9.42,9.93L399.49,160q3.56,7.75,1.39,13.61T391,183l-26.76,12.28-22-48,26.75-12.28Zm10.69,14.23q-2.83-6.15-9-3.33l-11.66,5.36L372.12,180l11.66-5.36c4.12-1.89,5.23-4.89,3.36-9Z"/>
    <polygon class="cls-3" points="462.2 160.48 421.77 171.51 407.85 120.53 448.26 109.5 451.06 119.71 423.75 127.17 426.44 137 447.92 131.13 450.7 141.35 429.22 147.21 432.09 157.73 459.4 150.27 462.2 160.48"/>
    <polygon class="cls-3" points="521.69 152.51 507.45 154.23 485.69 124.91 489.46 156.39 475.98 158.01 469.68 105.52 483.91 103.81 505.68 133.14 501.9 101.65 515.38 100.03 521.69 152.51"/>
    <polygon class="cls-3" points="564.44 153.27 550.86 152.9 552 110.61 536.17 110.18 536.45 99.61 581.71 100.84 581.43 111.41 565.58 110.98 564.44 153.27"/>
    <path class="cls-3" d="M632.74,163.36l-14.2-3.86,33.14-45.75,14.57,4,5.47,56.23-14.2-3.86-.82-10-18.21-4.95-5.75,8.21Zm11.59-16.75L656,149.78l-1.18-18.71Z"/>
    <path class="cls-3" d="M707.84,150.23q-1.87,4.16,2.25,6l12.38,5.61q6.75,3,8.5,7.6t-1.24,11.17L728.19,184q-3,6.63-7.57,8.32T709.3,191l-4.37-2-4.67-2.12-4.75-2.14-4.51-2a62.1,62.1,0,0,1-9.57-5.39l4-8.78,9.78,4.42,8.39,3.8,7.36,3.33a3.76,3.76,0,0,0,2.91.25,3.48,3.48,0,0,0,2-2l2.64-5.87-15.81-7.15c-4.82-2.19-7.82-4.85-9-8s-.7-7.17,1.48-12l.94-2.06q3.28-7.23,8-9t12,1.48l24.14,10.92-4.37,9.66-21.39-9.68c-2.76-1.24-4.75-.5-6,2.27Z"/>
    <polygon class="cls-3" points="770.82 226.13 735.44 203.72 763.7 159.06 799.1 181.47 793.44 190.42 769.52 175.28 764.05 183.92 782.86 195.83 777.19 204.78 758.39 192.87 752.58 202.04 776.49 217.18 770.82 226.13"/>
    <path class="cls-3" d="M814.11,215c-2,2.27-1.81,4.38.47,6.37l10.25,8.91q5.58,4.84,6,9.7c.26,3.23-1.21,6.68-4.38,10.34l-2.44,2.8q-4.79,5.49-9.63,5.79c-3.25.21-6.72-1.3-10.45-4.54l-3.61-3.14q-1.9-1.66-3.88-3.36l-3.93-3.42c-1.31-1.13-2.54-2.22-3.72-3.24a61.24,61.24,0,0,1-7.62-7.91l6.31-7.28,8.09,7q3.36,2.9,7,6c2.39,2.07,4.43,3.83,6.09,5.28a3.8,3.8,0,0,0,2.72,1.08,3.42,3.42,0,0,0,2.48-1.3L818,239.3l-13.09-11.38q-6-5.19-6.35-10.24t4.84-11l1.49-1.71c3.45-4,6.87-6.1,10.24-6.33s7,1.37,11,4.83l20,17.38-7,8-17.71-15.38q-3.42-3-6.38.43Z"/>
    <path class="cls-3" d="M876.32,275.49c2.31-2,2.5-4.09.54-6.39l-8.29-9.81c-1.94-2.3-4.08-2.48-6.39-.52l-18.49,15.66c-2.32,2-2.49,4.09-.54,6.39l8.28,9.8q2.94,3.45,6.41.52l18.48-15.65Zm-9.69,26q-6,5.11-11.11,4.72c-3.38-.29-6.76-2.45-10.17-6.47l-12.2-14.41c-3.41-4-5-7.73-4.7-11.1s2.44-6.77,6.48-10.18l18.44-15.62c4-3.43,7.75-5,11.12-4.72s6.77,2.43,10.18,6.47l12.2,14.41c3.41,4,5,7.73,4.69,11.1s-2.43,6.76-6.47,10.18Z"/>
    <path class="cls-3" d="M910.62,296.63l16,27.39q4,6.84,2.71,11.75t-8.14,8.91l-5.87,3.43q-5.43,3.15-9.47,3.11a10.19,10.19,0,0,1-7.31-3.37L889,364.35l-7.43-12.71,9.3-15.49L885.51,327l-13.69,8L865,323.29l45.64-26.66Zm3.7,36.3q3.93-2.3,1.64-6.19l-7.61-13-13.72,8,7.61,13q2.28,3.9,6.2,1.61Z"/>
    <path class="cls-3" d="M905.17,400.59l-11.34-24.7,9.64-4.42,2.83,6.17,28.77-13.2-2.83-6.17,9.64-4.43,11.33,24.7L943.57,383l-2.84-6.18L912,390l2.85,6.18-9.64,4.42Zm42.18-40.16,13.56-1.24,5.68,12.35-15.14-2.19Z"/>
    <path class="cls-3" d="M912.7,423.61l-3.87-14.21,56.24,5.38,4,14.57-45.7,33.22-3.88-14.21,8.21-5.76-5-18.21-10-.78Zm20.37,1.48,3.18,11.65,15.25-10.42Z"/>
    <g>
      <path class="cls-7" d="M142.4,486.21a6.69,6.69,0,1,0-7-6.68A6.84,6.84,0,0,0,142.4,486.21Z"/>
      <path class="cls-7" d="M937.6,486.21a6.69,6.69,0,1,0-7-6.68A6.84,6.84,0,0,0,937.6,486.21Z"/>
    </g>
    <path class="cls-8" d="M262.35,485.55c6.5,13.37,39.11,31.41,50.48,59.17,9.46,23.07,9.83,140.64,6,162.52-1.6,9.16-6.15,14.54-11.79,20,13.09,9.42,92.22,9.06,104.81,0-5.63-5.43-10.18-10.81-11.79-20-3.83-21.88-3.46-139.45,6-162.52,11.38-27.76,44-45.8,50.48-59.17-9.86-10.55-16.32-19.73-23.88-31.8-8.78,4.32-31.77,33.13-48.24,52.89L378,504.51l-7.47-2L359.44,515.8v9.52h0V515.8l-11.11-13.29-7.47,2-6.39,2.13C318,486.88,295,458.07,286.24,453.75,277.36,465.82,272.3,473.77,262.35,485.55Z"/>
    <path class="cls-8" d="M457.87,467.85c8.68,10.83,20.26,26,25.85,21.24,3.2-5.15,2.51-7-.66-11.18l-18.88-14.24c-1.92-10.07-3-13.61-12.38-19.57-5.37-6.18-14.32-28-19.36-28.11-4.59,1.56-7.21,4.79-7.06,10.71,1.82,2,3.15,2.56,4.75,4.39C432,433.24,444,448,443.74,450.57c-2.89,1.69-4.69,6.43-7.85,9.65,2.84,5.15,6.06,10.95,10.15,14.61C446.11,474.79,457.47,468,457.87,467.85Z"/>
    <path class="cls-8" d="M260.2,460.65c4.7-3,6.44-3.89,14.13-6.26,2.66,3.46,4.82,7.1,6.45,9.15-2.84,5.15-5.51,9.8-9.59,13.47-7.6-3.66-15.48-8.33-18.06-10.56A42.7,42.7,0,0,1,260.2,460.65Z"/>
    <path class="cls-8" d="M359.44,497.64c13.38,0,24.29-12.51,24.29-27.85s-10.91-27.85-24.29-27.85-24.29,12.51-24.29,27.85S346.06,497.64,359.44,497.64Z"/>
    <path class="cls-8" d="M219.52,458.77c7.18-.74,8.57-.76,16.08-1.37h0l2.58-.11a10.81,10.81,0,0,0,1,2.45c.95,1.79,4.49,8.83,5.25,9.87.63-.53,1.07-1.19,1.66-1.77a74.57,74.57,0,0,1,5.85-5.23,61.53,61.53,0,0,1,20.51-10.7c1.71-.5,3.42-1,5.08-1.29.95-.19,4.46-.65,5-.88-1.64-3.3-3.47-6.61-5.18-9.88a14.66,14.66,0,0,0-1.3-2.09l2-3.13L287.68,423c-1-.24-41.37,3.34-41.63,3.47s-17.23,20.89-20,24.18C225.21,451.71,219.71,458.24,219.52,458.77Z"/>
    <ellipse class="cls-9" cx="342.63" cy="733.8" rx="11.63" ry="6.79"/>
    <ellipse class="cls-9" cx="375.59" cy="733.8" rx="11.63" ry="6.79"/>
    <path class="cls-8" d="M232.05,456.45C231,465,229.38,483,229,485.66a3.9,3.9,0,0,0,4.06.15s-.36-38-.18-.39c-.08-17,0-25.1.07-29C233.08,450.42,232.59,452.19,232.05,456.45Z"/>
    <path class="cls-10" d="M456.89,485.55c6.5,13.37,39.11,31.41,50.48,59.17,9.46,23.07,9.82,140.64,6,162.52-1.6,9.16-6.15,14.54-11.79,20,13.09,9.42,92.22,9.06,104.81,0-5.64-5.43-10.19-10.81-11.79-20-3.83-21.88-3.47-139.45,6-162.52,11.37-27.76,44-45.8,50.48-59.17-9.86-10.55-16.32-19.73-23.88-31.8-8.78,4.32-31.77,33.13-48.24,52.89l-6.39-2.13-7.46-2L554,515.8v9.52h0V515.8l-11.11-13.29-7.46,2L529,506.64c-16.47-19.76-39.46-48.57-48.23-52.89C471.89,465.82,466.84,473.77,456.89,485.55Z"/>
    <path class="cls-10" d="M652.4,467.85c8.69,10.83,19.54,24.37,25.12,19.62,3.2-5.15.24-4.07-2.93-8.27l-15.88-15.53c-1.92-10.07-3-13.61-12.38-19.57C641,437.92,632,416.1,627,416c-4.59,1.56-7.21,4.79-7.06,10.71,1.82,2,3.14,2.56,4.75,4.39,1.89,2.15,13.84,16.87,13.61,19.48-2.89,1.69-4.69,6.43-7.85,9.65,2.84,5.15,6.06,10.95,10.14,14.61C640.65,474.79,652,468,652.4,467.85Z"/>
    <path class="cls-10" d="M454.74,460.65c4.69-3,6.44-3.89,14.12-6.26,2.67,3.46,4.83,7.1,6.46,9.15-2.84,5.15-5.51,9.8-9.6,13.47-7.59-3.66-15.47-8.33-18.05-10.56A42.28,42.28,0,0,1,454.74,460.65Z"/>
    <ellipse class="cls-11" cx="553.98" cy="469.79" rx="24.29" ry="27.85"/>
    <path class="cls-10" d="M414.06,458.77c7.18-.74,8.57-.76,16.08-1.37h0l2.57-.11a11.79,11.79,0,0,0,1,2.45c1,1.79,4.5,8.83,5.26,9.87.62-.53,1.07-1.19,1.66-1.77a72.82,72.82,0,0,1,5.85-5.23A61.53,61.53,0,0,1,467,451.91c1.71-.5,3.42-1,5.08-1.29.95-.19,4.46-.65,5-.88-1.64-3.3-3.47-6.61-5.19-9.88a13.83,13.83,0,0,0-1.29-2.09l2-3.13L482.22,423c-1.05-.24-41.37,3.34-41.63,3.47s-17.24,20.89-20,24.18C419.75,451.71,414.25,458.24,414.06,458.77Z"/>
    <ellipse class="cls-11" cx="537.16" cy="733.8" rx="11.63" ry="6.79"/>
    <ellipse class="cls-11" cx="570.13" cy="733.8" rx="11.63" ry="6.79"/>
    <path class="cls-10" d="M426.59,456.45c-1.09,8.52-2.67,26.51-3.06,29.21a3.9,3.9,0,0,0,4.06.15s-.36-38-.18-.39c-.08-17,0-25.1.07-29C427.61,450.42,427.13,452.19,426.59,456.45Z"/>
    <g>
      <path class="cls-12" d="M651.43,485.55c6.5,13.37,39.1,31.41,50.48,59.17,9.45,23.07,9.82,140.64,6,162.52-1.61,9.16-6.15,14.54-11.79,20,13.08,9.42,92.22,9.06,104.81,0-5.64-5.43-10.19-10.81-11.79-20-3.84-21.88-3.47-139.45,6-162.52,11.37-27.76,44-45.8,50.48-59.17-9.86-10.55-16.32-19.73-23.89-31.8-8.78,4.32-31.76,33.13-48.23,52.89l-6.39-2.13-7.47-2L748.51,515.8v9.52h0V515.8L737.4,502.51l-7.46,2-6.39,2.13c-16.47-19.76-39.46-48.57-48.24-52.89C666.43,465.82,661.37,473.77,651.43,485.55Z"/>
      <path class="cls-12" d="M846.94,467.85c8.69,10.83,15.68,29,21.26,24.3,3.2-5.15,2.51-7-.65-11.19l-14.3-17.29c-1.92-10.07-3-13.61-12.38-19.57-5.37-6.18-14.31-28-19.35-28.11-4.59,1.56-7.21,4.79-7.07,10.71,1.83,2,3.15,2.56,4.75,4.39,1.89,2.15,13.85,16.87,13.62,19.48-2.9,1.69-4.69,6.43-7.85,9.65,2.84,5.15,6.06,10.95,10.14,14.61C835.19,474.79,846.55,468,846.94,467.85Z"/>
      <path class="cls-12" d="M649.28,460.65c4.69-3,6.44-3.89,14.12-6.26,2.67,3.46,4.83,7.1,6.46,9.15-2.84,5.15-5.52,9.8-9.6,13.47-7.6-3.66-15.47-8.33-18.06-10.56A42.64,42.64,0,0,1,649.28,460.65Z"/>
      <ellipse cx="748.51" cy="469.79" rx="24.29" ry="27.85"/>
      <path class="cls-12" d="M608.6,458.77c7.18-.74,8.57-.76,16.08-1.37h0l2.57-.11a11.79,11.79,0,0,0,1,2.45c1,1.79,4.49,8.83,5.25,9.87.63-.53,1.08-1.19,1.66-1.77a76.42,76.42,0,0,1,5.85-5.23,61.57,61.57,0,0,1,20.52-10.7c1.71-.5,3.42-1,5.08-1.29,1-.19,4.46-.65,5-.88-1.64-3.3-3.47-6.61-5.19-9.88a13.06,13.06,0,0,0-1.3-2.09l2-3.13,9.6-11.64c-1-.24-41.36,3.34-41.63,3.47s-17.23,20.89-20,24.18C614.29,451.71,608.78,458.24,608.6,458.77Z"/>
      <g>
        <ellipse cx="731.7" cy="733.8" rx="11.63" ry="6.79"/>
        <ellipse cx="764.66" cy="733.8" rx="11.63" ry="6.79"/>
      </g>
      <path class="cls-12" d="M621.12,456.45c-1.08,8.52-2.67,26.51-3,29.21a3.9,3.9,0,0,0,4.06.15s-.37-38-.19-.39c-.08-17,0-25.1.08-29C622.15,450.42,621.66,452.19,621.12,456.45Z"/>
    </g>
  </g>
</svg>
